<svg width="19" height="18" viewBox="0 0 19 18" fill="none" xmlns="http://www.w3.org/2000/svg">
<mask id="mask0_11_775" style="mask-type:alpha" maskUnits="userSpaceOnUse" x="0" y="0" width="19" height="18">
<rect x="0.5" width="18" height="18" fill="#D9D9D9"/>
</mask>
<g mask="url(#mask0_11_775)">
<path d="M4.24941 15.75C3.61191 15.75 3.15878 15.4656 2.89003 14.8969C2.62128 14.3281 2.68691 13.8 3.08691 13.3125L7.24941 8.25V3.75H6.49941C6.28691 3.75 6.10878 3.67812 5.96503 3.53437C5.82128 3.39062 5.74941 3.2125 5.74941 3C5.74941 2.7875 5.82128 2.60937 5.96503 2.46562C6.10878 2.32187 6.28691 2.25 6.49941 2.25H12.4994C12.7119 2.25 12.89 2.32187 13.0338 2.46562C13.1775 2.60937 13.2494 2.7875 13.2494 3C13.2494 3.2125 13.1775 3.39062 13.0338 3.53437C12.89 3.67812 12.7119 3.75 12.4994 3.75H11.7494V8.25L15.9119 13.3125C16.3119 13.8 16.3775 14.3281 16.1088 14.8969C15.84 15.4656 15.3869 15.75 14.7494 15.75H4.24941ZM5.74941 13.5H13.2494L10.6994 10.5H8.29941L5.74941 13.5ZM4.24941 14.25H14.7494L10.2494 8.775V3.75H8.74941V8.775L4.24941 14.25Z" fill="#333333"/>
</g>
</svg>
