<svg width="21" height="22" viewBox="0 0 21 22" fill="none" xmlns="http://www.w3.org/2000/svg">
<g clip-path="url(#clip0_11_757)">
<path d="M19.4498 0.5H1.55021C1.13907 0.5 0.744766 0.663325 0.454046 0.954046C0.163325 1.24477 0 1.63907 0 2.05021V19.9498C0 20.3609 0.163325 20.7552 0.454046 21.046C0.744766 21.3367 1.13907 21.5 1.55021 21.5H19.4498C19.8609 21.5 20.2552 21.3367 20.546 21.046C20.8367 20.7552 21 20.3609 21 19.9498V2.05021C21 1.63907 20.8367 1.24477 20.546 0.954046C20.2552 0.663325 19.8609 0.5 19.4498 0.5ZM6.25917 18.3894H3.10188V8.36042H6.25917V18.3894ZM4.67833 6.97063C4.32019 6.96861 3.97068 6.86055 3.67389 6.66008C3.37711 6.45961 3.14636 6.17571 3.01077 5.84423C2.87518 5.51274 2.84082 5.14852 2.91203 4.79752C2.98324 4.44653 3.15683 4.12449 3.41089 3.87206C3.66494 3.61963 3.98809 3.44811 4.33953 3.37915C4.69098 3.3102 5.05497 3.34689 5.38558 3.48461C5.71619 3.62233 5.9986 3.8549 6.19716 4.15296C6.39572 4.45103 6.50153 4.80123 6.50125 5.15938C6.50463 5.39915 6.4597 5.63716 6.36914 5.8592C6.27857 6.08125 6.14423 6.28279 5.97412 6.45181C5.80401 6.62083 5.60162 6.75387 5.379 6.84301C5.15637 6.93214 4.91809 6.97554 4.67833 6.97063ZM17.8967 18.3981H14.7408V12.9192C14.7408 11.3033 14.054 10.8046 13.1673 10.8046C12.231 10.8046 11.3123 11.5104 11.3123 12.96V18.3981H8.155V8.36771H11.1913V9.7575H11.2321C11.5369 9.14063 12.6044 8.08625 14.2333 8.08625C15.995 8.08625 17.8981 9.13188 17.8981 12.1944L17.8967 18.3981Z" fill="#0A66C2"/>
</g>
<defs>
<clipPath id="clip0_11_757">
<rect width="21" height="21" fill="white" transform="translate(0 0.5)"/>
</clipPath>
</defs>
</svg>
