<svg width="57" height="60" viewBox="0 0 57 60" fill="none" xmlns="http://www.w3.org/2000/svg">
<path d="M43.4218 42.079C43.4218 45.373 42.8362 47.9716 41.665 49.8748C40.4938 51.7048 38.7736 53.425 36.5044 55.0354C35.9188 55.4014 35.1136 55.8406 34.0888 56.353C33.064 56.8654 31.9294 57.3412 30.685 57.7804C29.4406 58.2196 28.123 58.5856 26.7322 58.8784C25.3414 59.1712 24.0604 59.3176 22.8892 59.3176C19.5952 59.3176 17.1064 58.9516 15.4228 58.2196C13.7392 57.5608 12.8974 56.7556 12.8974 55.804C12.8974 54.7792 13.1902 53.9374 13.7758 53.2786C14.3614 52.6198 14.8738 52.2538 15.313 52.1806L16.5208 53.059C16.8868 53.425 17.3992 53.8276 18.058 54.2668C18.7168 54.6328 19.7782 54.8158 21.2422 54.8158C22.633 54.8158 24.3166 54.5962 26.293 54.157C28.2694 53.6446 30.136 52.9126 31.8928 51.961C33.7228 50.9362 35.26 49.6918 36.5044 48.2278C37.822 46.7638 38.4808 45.0802 38.4808 43.177C38.4808 41.4934 37.1998 39.9562 34.6378 38.5654C32.149 37.1014 28.1962 36.1132 22.7794 35.6008C19.9978 35.3812 17.2528 35.0518 14.5444 34.6126C11.836 34.1002 9.38378 33.4414 7.18778 32.6362C5.06498 31.7578 3.34478 30.6964 2.02718 29.452C0.709581 28.1344 0.0507812 26.524 0.0507812 24.6208C0.0507812 22.7908 0.563181 21.034 1.58798 19.3504C2.61278 17.6668 3.85718 16.1296 5.32118 14.7388C6.85838 13.2748 8.43218 11.9938 10.0426 10.8958C11.653 9.79779 13.0072 8.88279 14.1052 8.15079C14.9836 7.63839 16.1914 6.97959 17.7286 6.17439C19.339 5.29599 21.0226 4.49079 22.7794 3.75879C24.6094 2.9536 26.4028 2.2948 28.1596 1.78239C29.9896 1.19679 31.5268 0.903992 32.7712 0.903992C34.2352 0.903992 35.2234 1.30659 35.7358 2.1118C36.2482 2.91699 36.5044 4.05159 36.5044 5.51559C36.5044 6.75999 36.358 8.07759 36.0652 9.46839C35.7724 10.8592 35.443 12.2134 35.077 13.531C34.711 14.8486 34.345 16.0198 33.979 17.0446C33.6862 17.9962 33.4666 18.6184 33.3202 18.9112C33.0274 19.57 32.698 20.0092 32.332 20.2288C31.966 20.4484 31.7098 20.5582 31.5634 20.5582C31.2706 20.5582 31.1242 20.3752 31.1242 20.0092C31.1242 19.7896 31.1608 19.387 31.234 18.8014C31.3804 18.1426 31.5268 17.374 31.6732 16.4956C31.8928 15.6172 32.0392 14.6656 32.1124 13.6408C32.2588 12.616 32.332 11.5912 32.332 10.5664C32.332 8.95599 32.2588 7.78479 32.1124 7.05279C31.966 6.32079 31.3804 5.95479 30.3556 5.95479C29.3308 5.95479 27.94 6.24759 26.1832 6.83319C24.4264 7.34559 22.633 8.00439 20.803 8.80959C18.8266 9.68799 16.8868 10.8226 14.9836 12.2134C13.1536 13.6042 11.5066 15.0316 10.0426 16.4956C8.57858 17.9596 7.37078 19.387 6.41918 20.7778C5.54078 22.0954 5.10158 23.1568 5.10158 23.962C5.10158 24.8404 5.68718 25.6822 6.85838 26.4874C8.10278 27.2194 9.63998 27.8782 11.47 28.4638C13.3732 29.0494 15.4594 29.5618 17.7286 30.001C19.9978 30.4402 22.2304 30.7696 24.4264 30.9892C26.2564 31.2088 28.2694 31.5016 30.4654 31.8676C32.6614 32.2336 34.711 32.8192 36.6142 33.6244C38.5174 34.4296 40.1278 35.5276 41.4454 36.9184C42.763 38.236 43.4218 39.9562 43.4218 42.079Z" fill="#4DBDA4"/>
<path d="M56.494 50.9728C56.494 51.412 56.2744 51.8512 55.8352 52.2904C55.396 52.6564 54.8836 53.0224 54.298 53.3884C53.7856 53.6812 53.2732 53.9374 52.7608 54.157C52.2484 54.3034 51.9556 54.3766 51.8824 54.3766C51.2236 54.3766 50.7112 54.2302 50.3452 53.9374C50.0524 53.5714 49.7962 53.2054 49.5766 52.8394C49.4302 52.4002 49.3204 51.9976 49.2472 51.6316C49.2472 51.2656 49.2472 51.0094 49.2472 50.863C49.2472 50.5702 49.3204 50.2042 49.4668 49.765C49.6132 49.2526 49.8328 48.7768 50.1256 48.3376C50.4184 47.8984 50.7478 47.5324 51.1138 47.2396C51.553 46.8736 52.0288 46.6906 52.5412 46.6906C53.4928 46.6906 54.3712 47.0932 55.1764 47.8984C56.0548 48.7036 56.494 49.7284 56.494 50.9728Z" fill="#4DBDA4"/>
</svg>
